<svg viewBox="0 0 13 13">
<path d="M6.86914 11.9277L12.2832 6.50781C12.7051 6.08008 12.7402 5.83984 12.7402 5.24219V3.13281C12.7402 2.54102 12.5938 2.34766 12.166 1.91992L10.8945 0.642578C10.4668 0.214844 10.2734 0.0742188 9.67578 0.0742188H7.57227C6.97461 0.0742188 6.73438 0.109375 6.30664 0.53125L0.880859 5.94531C0.078125 6.74805 0.0664062 7.5918 0.886719 8.41211L4.4082 11.9219C5.22852 12.7422 6.06641 12.7363 6.86914 11.9277ZM6.23047 11.2012C5.84375 11.5879 5.43945 11.5938 5.04102 11.1953L1.61328 7.77344C1.2207 7.375 1.22656 6.96484 1.61328 6.57812L6.99219 1.21094C7.10352 1.09375 7.21484 1.0293 7.39648 1.0293H9.69922C9.86914 1.0293 9.98633 1.09375 10.0977 1.20508L11.6035 2.71094C11.7207 2.82812 11.7793 2.94531 11.7793 3.11523V5.41211C11.7793 5.59961 11.7148 5.71094 11.6035 5.82227L6.23047 11.2012ZM9.01367 4.56836C9.45898 4.56836 9.78711 4.22852 9.78711 3.79492C9.78711 3.36719 9.45898 3.02734 9.01367 3.02734C8.57422 3.02734 8.24609 3.36719 8.24609 3.79492C8.24609 4.22852 8.57422 4.56836 9.01367 4.56836Z"/>
</svg>
